<svg xmlns="http://www.w3.org/2000/svg" width="120" height="28" viewBox="0 0 120 28">
  <g id="グループ_37" data-name="グループ 37" transform="translate(-220 -4057)">
    <g id="長方形_152" data-name="長方形 152" transform="translate(220 4057)" fill="#fff" stroke="#272726" stroke-width="1">
      <rect width="120" height="28" rx="14" stroke="none"/>
      <rect x="0.5" y="0.5" width="119" height="27" rx="13.5" fill="none"/>
    </g>
    <path id="パス_162" data-name="パス 162" d="M.994,0V-9.8h4.48a3.388,3.388,0,0,1,2.177.644,2.624,2.624,0,0,1,.8,2.17,2.865,2.865,0,0,1-.588,1.953,2.591,2.591,0,0,1-1.624.819L8.344,0H6.454L4.564-4.144H2.6V0ZM2.6-5.656H5.25a1.752,1.752,0,0,0,1.106-.308,1.223,1.223,0,0,0,.392-1.022,1.205,1.205,0,0,0-.392-1.008A1.752,1.752,0,0,0,5.25-8.3H2.6ZM12.348.154a3.261,3.261,0,0,1-2.38-.889,3.53,3.53,0,0,1-.91-2.639,4.076,4.076,0,0,1,.406-1.883A2.923,2.923,0,0,1,10.6-6.475,3.231,3.231,0,0,1,12.264-6.9a2.737,2.737,0,0,1,1.6.455,2.911,2.911,0,0,1,1.008,1.239,4.282,4.282,0,0,1,.35,1.764v.364H10.612a2.009,2.009,0,0,0,.532,1.435,1.775,1.775,0,0,0,1.232.427,1.748,1.748,0,0,0,1.078-.315,2.553,2.553,0,0,0,.728-.945l1.162.812A3.376,3.376,0,0,1,14.077-.273,3.43,3.43,0,0,1,12.348.154ZM10.682-4.3h2.982a1.776,1.776,0,0,0-.483-1.015,1.307,1.307,0,0,0-.945-.357,1.522,1.522,0,0,0-1.015.336A1.752,1.752,0,0,0,10.682-4.3ZM18.774.1a2.776,2.776,0,0,1-1.8-.476,1.743,1.743,0,0,1-.707-1.5A1.8,1.8,0,0,1,16.7-3.094a2.952,2.952,0,0,1,1.12-.791,3.824,3.824,0,0,1,1.414-.3,2.072,2.072,0,0,1,.686.056,2.12,2.12,0,0,1,.574.238V-4.48q0-.658-.28-.854a1.439,1.439,0,0,0-.826-.2,3.919,3.919,0,0,0-1.239.217,4.334,4.334,0,0,0-1.113.539l-.714-1.218a6.391,6.391,0,0,1,1.386-.637A5.237,5.237,0,0,1,19.39-6.9a3.1,3.1,0,0,1,1.96.525,2.311,2.311,0,0,1,.658,1.9v3.094q0,.294.133.336a1.4,1.4,0,0,0,.609-.1v.994a2.869,2.869,0,0,1-.525.175A2.854,2.854,0,0,1,21.546.1a1.243,1.243,0,0,1-.665-.147.82.82,0,0,1-.329-.5,2.557,2.557,0,0,1-.812.455A3.513,3.513,0,0,1,18.774.1Zm-.028-1.372a2.9,2.9,0,0,0,1.3-.308.817.817,0,0,0,.483-.8.485.485,0,0,0-.343-.462,1.985,1.985,0,0,0-.819-.1,1.935,1.935,0,0,0-1.134.343.881.881,0,0,0-.434.735Q17.822-1.232,18.746-1.274ZM26.656.154A3.284,3.284,0,0,1,25-.266a3,3,0,0,1-1.162-1.211,3.941,3.941,0,0,1-.427-1.9,3.941,3.941,0,0,1,.427-1.9A3,3,0,0,1,25-6.482a3.284,3.284,0,0,1,1.659-.42,2.24,2.24,0,0,1,1.75.77v-3.85h1.582V0H28.616l-.07-.77a2.534,2.534,0,0,1-.833.679A2.3,2.3,0,0,1,26.656.154Zm.07-1.428a1.585,1.585,0,0,0,1.232-.546,2.249,2.249,0,0,0,.49-1.554,2.249,2.249,0,0,0-.49-1.554,1.585,1.585,0,0,0-1.232-.546,1.585,1.585,0,0,0-1.232.546A2.249,2.249,0,0,0,25-3.374a2.249,2.249,0,0,0,.49,1.554A1.585,1.585,0,0,0,26.726-1.274ZM35.756,0V-9.8h1.61L40.18-5.1l2.772-4.7H44.59V0H42.938V-6.986L40.642-3H39.69l-2.31-3.99V0ZM49.322.154a3.162,3.162,0,0,1-1.659-.441A3.147,3.147,0,0,1,46.5-1.519a3.848,3.848,0,0,1-.427-1.855A3.848,3.848,0,0,1,46.5-5.229a3.147,3.147,0,0,1,1.162-1.232A3.162,3.162,0,0,1,49.322-6.9a3.215,3.215,0,0,1,1.687.441,3.1,3.1,0,0,1,1.155,1.232,3.9,3.9,0,0,1,.42,1.855,3.9,3.9,0,0,1-.42,1.855A3.1,3.1,0,0,1,51.009-.287,3.215,3.215,0,0,1,49.322.154Zm0-1.428a1.523,1.523,0,0,0,1.211-.546A2.316,2.316,0,0,0,51-3.374a2.316,2.316,0,0,0-.469-1.554,1.523,1.523,0,0,0-1.211-.546,1.487,1.487,0,0,0-1.19.546,2.34,2.34,0,0,0-.462,1.554,2.34,2.34,0,0,0,.462,1.554A1.487,1.487,0,0,0,49.322-1.274ZM53.942,0V-6.734H55.37l.1.952a1.918,1.918,0,0,1,.791-.812A2.265,2.265,0,0,1,57.4-6.9a3.083,3.083,0,0,1,.434.028,2.334,2.334,0,0,1,.336.07v1.526a2.823,2.823,0,0,0-.427-.091,4.054,4.054,0,0,0-.567-.035,1.657,1.657,0,0,0-1.169.448,1.633,1.633,0,0,0-.483,1.26V0ZM62.23.154a3.261,3.261,0,0,1-2.38-.889,3.531,3.531,0,0,1-.91-2.639,4.076,4.076,0,0,1,.406-1.883A2.923,2.923,0,0,1,60.48-6.475,3.231,3.231,0,0,1,62.146-6.9a2.737,2.737,0,0,1,1.6.455A2.911,2.911,0,0,1,64.75-5.208a4.282,4.282,0,0,1,.35,1.764v.364H60.494a2.009,2.009,0,0,0,.532,1.435,1.775,1.775,0,0,0,1.232.427,1.748,1.748,0,0,0,1.078-.315,2.553,2.553,0,0,0,.728-.945l1.162.812A3.376,3.376,0,0,1,63.959-.273,3.43,3.43,0,0,1,62.23.154ZM60.564-4.3h2.982a1.776,1.776,0,0,0-.483-1.015,1.307,1.307,0,0,0-.945-.357,1.522,1.522,0,0,0-1.015.336A1.752,1.752,0,0,0,60.564-4.3Z" transform="translate(236.274 4075.982)" fill="#272726"/>
    <g id="グループ_36" data-name="グループ 36" transform="translate(-30.384 1.5)">
      <path id="線_22" data-name="線 22" d="M12,.5H0v-1H12Z" transform="translate(345.5 4069.5)" fill="#272726"/>
      <path id="線_23" data-name="線 23" d="M.5,12h-1V0h1Z" transform="translate(351.5 4063.5)" fill="#272726"/>
    </g>
  </g>
</svg>
