<svg xmlns="http://www.w3.org/2000/svg" width="29.311" height="42.67" viewBox="0 0 29.311 42.67">
  <path id="パス_151" data-name="パス 151" d="M1.844-2.807A15.12,15.12,0,0,1,3.479-7.952,12.338,12.338,0,0,1,6.51-11.646a12.554,12.554,0,0,1,4.173-2.227,16.641,16.641,0,0,1,5.061-.747,15.177,15.177,0,0,1,5.089.8,11.615,11.615,0,0,1,3.877,2.227,9.757,9.757,0,0,1,2.467,3.341,10.01,10.01,0,0,1,.86,4.144A12.13,12.13,0,0,1,27.6-.678,8.144,8.144,0,0,1,26.344,1.9a7.41,7.41,0,0,1-2.03,1.861A12.634,12.634,0,0,1,21.58,5.031a10.648,10.648,0,0,1,5.47,3.524,9.533,9.533,0,0,1,1.8,5.949,12.26,12.26,0,0,1-1.128,5.385,11.571,11.571,0,0,1-3.045,3.933,13.269,13.269,0,0,1-4.44,2.411,17.226,17.226,0,0,1-5.343.818,18.231,18.231,0,0,1-5.357-.7,11.63,11.63,0,0,1-3.975-2.086A12.6,12.6,0,0,1,2.69,20.876,22.832,22.832,0,0,1,.66,16.252l3.073-1.269A3.689,3.689,0,0,1,6,14.715a2.2,2.2,0,0,1,1.537,1.142q.507.987,1.114,1.945A7.891,7.891,0,0,0,10.1,19.508a6.91,6.91,0,0,0,1.988,1.212,7.2,7.2,0,0,0,2.721.465,7.706,7.706,0,0,0,3.1-.578A6.736,6.736,0,0,0,20.128,19.1a6.185,6.185,0,0,0,1.325-2.072,6.385,6.385,0,0,0,.437-2.3,10.634,10.634,0,0,0-.31-2.664,3.949,3.949,0,0,0-1.3-2.044A7.045,7.045,0,0,0,17.449,8.7,20.436,20.436,0,0,0,12.5,8.217V3.255a17.618,17.618,0,0,0,4.257-.479,7.249,7.249,0,0,0,2.692-1.255,4.251,4.251,0,0,0,1.4-1.931,7.467,7.467,0,0,0,.395-2.481,5.677,5.677,0,0,0-1.607-4.37,6.042,6.042,0,0,0-4.285-1.494,7.1,7.1,0,0,0-2.284.352,6.492,6.492,0,0,0-1.875.987,6.129,6.129,0,0,0-1.4,1.48,6.435,6.435,0,0,0-.846,1.861,3.054,3.054,0,0,1-1.255,1.72,3.456,3.456,0,0,1-2.185.2Z" transform="translate(-0.042 15.12)" fill="#fff" stroke="#363333" stroke-width="1"/>
</svg>
