<svg xmlns="http://www.w3.org/2000/svg" width="28.968" height="42.219" viewBox="0 0 28.968 42.219">
  <path id="パス_152" data-name="パス 152" d="M26.275,20.115a2.481,2.481,0,0,1,1.79.634,2.215,2.215,0,0,1,.663,1.678V26.6H.76V24.287a4.148,4.148,0,0,1,.3-1.48A3.794,3.794,0,0,1,2,21.411L14.377,9.006q1.551-1.579,2.777-3.017A19.474,19.474,0,0,0,19.2,3.142,13.4,13.4,0,0,0,20.453.28a10.558,10.558,0,0,0,.437-3.059,7.242,7.242,0,0,0-.423-2.58,5.144,5.144,0,0,0-1.2-1.875,4.957,4.957,0,0,0-1.861-1.142,7.338,7.338,0,0,0-2.439-.381,7.225,7.225,0,0,0-2.3.352,6.258,6.258,0,0,0-1.875.987,6.256,6.256,0,0,0-1.381,1.48A6.435,6.435,0,0,0,8.57-4.076a3.084,3.084,0,0,1-1.241,1.72,3.475,3.475,0,0,1-2.2.2L1.465-2.807A15.12,15.12,0,0,1,3.1-7.952a12.338,12.338,0,0,1,3.031-3.693A12.554,12.554,0,0,1,10.3-13.873a16.641,16.641,0,0,1,5.061-.747,15.313,15.313,0,0,1,5.159.832,11.6,11.6,0,0,1,4,2.354,10.656,10.656,0,0,1,2.594,3.665A11.841,11.841,0,0,1,28.051-3a12.7,12.7,0,0,1-.663,4.173,17.349,17.349,0,0,1-1.776,3.665A24.678,24.678,0,0,1,23,8.217q-1.494,1.635-3.129,3.327l-9.191,9.388a20.872,20.872,0,0,1,2.636-.606,15.69,15.69,0,0,1,2.5-.211Z" transform="translate(-0.26 15.12)" fill="#fff" stroke="#363333" stroke-width="1"/>
</svg>
