<?xml version="1.0" encoding="utf-8"?>
<!-- Generator: Adobe Illustrator 15.1.0, SVG Export Plug-In . SVG Version: 6.00 Build 0)  -->
<!DOCTYPE svg PUBLIC "-//W3C//DTD SVG 1.1//EN" "http://www.w3.org/Graphics/SVG/1.1/DTD/svg11.dtd">
<svg version="1.1" id="レイヤー_1" xmlns="http://www.w3.org/2000/svg" xmlns:xlink="http://www.w3.org/1999/xlink" x="0px"
	 y="0px" width="260px" height="260px" viewBox="0 0 260 260" enable-background="new 0 0 260 260" xml:space="preserve">
<rect fill-rule="evenodd" clip-rule="evenodd" fill="#E8E8E8" width="260" height="260"/>
<path fill-rule="evenodd" clip-rule="evenodd" d="M243.506,120.583c0,2.378,0,4.754,0,7.131
	c-1.571,15.461-8.496,27.757-18.247,36.285c-9.687,8.473-23.772,14.116-41.319,12.374c-2.736,9.055-5.819,17.683-10.487,25.169
	c-1.268,2.031-3.475,5.968-5.452,6.502c-3.254,0.878-9.138,0-13.213,0c-27.693,0-53.146,0-80.332,0c-4.203,0-10.309,0.905-13.423,0
	c-1.315-0.382-3.571-3.767-4.824-5.662c-4.328-6.543-7.31-14.722-9.648-21.813c-10.776-32.673-14.365-68.893-17.199-109.274
	c56.631,0,113.258,0,169.889,0c0.753,0.422,0.906,0.755,1.679,1.049c2.465,0.94,4.843,1.16,6.919,1.887
	C227.723,81.19,240.621,96.697,243.506,120.583z M221.693,123.94c-0.035-15.834-10.415-26.108-23.281-29.783
	c-0.245,0.035-0.229,0.332-0.21,0.628c-1.954,20.979-4.857,41.006-8.81,59.987C208.563,154.708,221.732,141.707,221.693,123.94z"/>
</svg>
