<svg xmlns="http://www.w3.org/2000/svg" width="107.4" height="42.953" viewBox="0 0 107.4 42.953">
  <g id="グループ_38" data-name="グループ 38" transform="matrix(0.966, -0.259, 0.259, 0.966, -1416.221, -5169.157)">
    <path id="パス_163" data-name="パス 163" d="M8.592,19.228a8.418,8.418,0,0,1-4.44-1.179A8.086,8.086,0,0,1,1.1,14.709,11.035,11.035,0,0,1,0,9.64a11.1,11.1,0,0,1,1.1-5.1A8.176,8.176,0,0,1,4.152,1.192,8.347,8.347,0,0,1,8.592,0a8.358,8.358,0,0,1,4.139,1.022,8,8,0,0,1,2.96,2.855l-2.7,1.572a5.375,5.375,0,0,0-1.847-1.834A4.943,4.943,0,0,0,8.592,2.96a5.008,5.008,0,0,0-2.855.825,5.32,5.32,0,0,0-1.9,2.331A8.628,8.628,0,0,0,3.17,9.64a8.558,8.558,0,0,0,.668,3.5,5.32,5.32,0,0,0,1.9,2.331,5.008,5.008,0,0,0,2.855.825,4.943,4.943,0,0,0,2.554-.655,5.375,5.375,0,0,0,1.847-1.834l2.7,1.572a8.065,8.065,0,0,1-2.96,2.829A8.358,8.358,0,0,1,8.592,19.228Zm9.667-.419V.131h2.96V7.7a3.711,3.711,0,0,1,1.257-1.271,3.66,3.66,0,0,1,2.017-.537A4.319,4.319,0,0,1,27.7,7.152a5.039,5.039,0,0,1,1.244,3.694v7.964h-2.96V11.553a3.516,3.516,0,0,0-.6-2.24,1.978,1.978,0,0,0-1.624-.747,2.371,2.371,0,0,0-1.834.773,3.29,3.29,0,0,0-.707,2.292v7.178Zm19.412.288a6.1,6.1,0,0,1-4.453-1.663,6.606,6.606,0,0,1-1.7-4.938,7.628,7.628,0,0,1,.76-3.523A5.469,5.469,0,0,1,34.4,6.693a6.046,6.046,0,0,1,3.117-.8,5.121,5.121,0,0,1,2.986.851,5.448,5.448,0,0,1,1.886,2.318,8.013,8.013,0,0,1,.655,3.3v.681H34.422a3.76,3.76,0,0,0,1,2.685,3.321,3.321,0,0,0,2.305.8,3.272,3.272,0,0,0,2.017-.589A4.778,4.778,0,0,0,41.1,14.172l2.174,1.519A6.317,6.317,0,0,1,40.906,18.3,6.417,6.417,0,0,1,37.671,19.1Zm-3.117-8.33h5.58a3.324,3.324,0,0,0-.9-1.9A2.446,2.446,0,0,0,37.461,8.2a2.847,2.847,0,0,0-1.9.629A3.278,3.278,0,0,0,34.553,10.767ZM51.24,19.1a5.825,5.825,0,0,1-5.279-3.13,7.2,7.2,0,0,1-.8-3.471,7.2,7.2,0,0,1,.8-3.471,5.825,5.825,0,0,1,5.279-3.13,6.262,6.262,0,0,1,2.816.629A5.4,5.4,0,0,1,56.139,8.33l-2.358,1.729A2.7,2.7,0,0,0,51.24,8.566a2.783,2.783,0,0,0-2.227,1.022,4.378,4.378,0,0,0-.864,2.908,4.378,4.378,0,0,0,.864,2.908,2.961,2.961,0,0,0,4.794-.445l2.331,1.7a5.592,5.592,0,0,1-2.083,1.794A6.156,6.156,0,0,1,51.24,19.1Zm7.44-.288V.131h2.96V11.422l4.375-5.213h3.563l-4.951,5.685,5.239,6.916H66.33L61.64,12.417v6.392Zm14.408-5.265L72.617.445h3.2l-.472,13.1Zm1.1,5.632a1.968,1.968,0,0,1-1.965-1.965A1.923,1.923,0,0,1,72.8,15.8a1.892,1.892,0,0,1,1.388-.576,1.967,1.967,0,0,1,1.428.576,1.9,1.9,0,0,1,.589,1.415,1.872,1.872,0,0,1-.589,1.388A1.967,1.967,0,0,1,74.188,19.176Z" transform="translate(39.412 5386)" fill="#ff3434"/>
    <path id="線_22" data-name="線 22" d="M1.092,19.647H0V0H1.092Z" transform="translate(132.811 5387.091) rotate(30)" fill="#ff3434"/>
    <path id="線_23" data-name="線 23" d="M1.092,19.647H0V0H1.092Z" transform="translate(22.567 5387.637) rotate(-30)" fill="#ff3434"/>
  </g>
</svg>
