<svg xmlns="http://www.w3.org/2000/svg" width="118.5" height="17.38" viewBox="0 0 118.5 17.38">
  <path id="パス_148" data-name="パス 148" d="M-56.36.22a5.493,5.493,0,0,0-.73-1.04,4.938,4.938,0,0,0-.99-.92,11,11,0,0,0,4.19-2.87,11.494,11.494,0,0,0,2.43-4.67l-5.4.16-.18-2.34q.26.02,1.14.01t2.16-.03q1.28-.02,2.72-.06a24.522,24.522,0,0,0,.24-4.08l2.48.02q.02,1.06-.04,2.06t-.18,1.94q1.4-.04,2.62-.08t2.05-.08q.83-.04,1.05-.06,0,.84-.1,2.02t-.26,2.43q-.16,1.25-.34,2.35t-.36,1.78a5.523,5.523,0,0,1-.91,2.1,2.8,2.8,0,0,1-1.58.97,11.059,11.059,0,0,1-2.69.23,10.382,10.382,0,0,0-.31-1.24,4.615,4.615,0,0,0-.57-1.26,16.83,16.83,0,0,0,2-.06,1.971,1.971,0,0,0,1.09-.4,2.045,2.045,0,0,0,.57-.98,13.222,13.222,0,0,0,.38-1.58q.18-.96.32-2.03t.2-2.01l-3.56.12a15.069,15.069,0,0,1-2.71,5.8A13.619,13.619,0,0,1-56.36.22Zm21.8-.28a6.754,6.754,0,0,0-.38-.68q-.26-.42-.57-.84a4,4,0,0,0-.59-.66A17.851,17.851,0,0,0-29.81-5.7a12.38,12.38,0,0,0,3.59-5.64q-.94.02-2.14.06l-2.45.08q-1.25.04-2.4.08t-2.01.08l-1.26.06-.16-2.7q.58.04,1.52.06t2.09.02q1.15,0,2.36-.01t2.35-.04q1.14-.03,2.06-.07t1.46-.08l1.62.84a17.917,17.917,0,0,1-2.24,5.73A16.323,16.323,0,0,1-29.3-2.89,18.148,18.148,0,0,1-34.56-.06ZM-16.02-1.8v-2q.5.04,1.86.06t3.26.02v-3.8q-1.26,0-2.3.01t-1.36.05V-9.44q.46.04,1.69.05t3.01.01q1.72,0,2.95-.02t1.63-.04v1.98q-.32-.04-1.26-.05T-8.9-7.52v3.8q1.82-.02,3.15-.04t1.71-.04v2q-.48-.04-2.03-.06t-3.87-.02q-1.3,0-2.58.01l-2.23.02Q-15.7-1.84-16.02-1.8ZM5.1.04,3.74-2.42A16.3,16.3,0,0,0,6.75-3.43,28.544,28.544,0,0,0,9.88-5.05a33.175,33.175,0,0,0,2.98-2,28.641,28.641,0,0,0,2.56-2.16,15.387,15.387,0,0,0,1.86-2.09,6.4,6.4,0,0,0,.27.86q.19.5.41.96a8.1,8.1,0,0,0,.38.72,19.426,19.426,0,0,1-2.47,2.54,33.4,33.4,0,0,1-3.23,2.47A34.324,34.324,0,0,1,8.95-1.58,28.216,28.216,0,0,1,5.1.04ZM8.82-10.58a5.531,5.531,0,0,0-.73-.58q-.49-.34-1.08-.71t-1.12-.67a8.213,8.213,0,0,0-.87-.44l1.36-2.08q.4.2.95.54t1.12.71q.57.37,1.06.71t.77.56ZM6.06-6.44a7,7,0,0,0-1.11-.72q-.73-.4-1.5-.77a11.608,11.608,0,0,0-1.31-.55l1.24-2.16q.58.22,1.35.6t1.49.78a12.313,12.313,0,0,1,1.14.7Zm11.06-7a11.182,11.182,0,0,0-1.09-1.26,10.139,10.139,0,0,0-1.19-1.06l1.02-.96a6.547,6.547,0,0,1,.77.65q.45.43.89.88a8.168,8.168,0,0,1,.68.77Zm-1.7,1.62a10.61,10.61,0,0,0-1.08-1.28,11.339,11.339,0,0,0-1.18-1.08l1.02-.96q.3.24.75.68t.89.89a8.168,8.168,0,0,1,.68.77ZM25.06-.76V-2.6q.4.02,1.37.04t2.32.02h4.03V-4.5H29.69q-1.03,0-1.96.01t-1.6.03q-.67.02-.93.04V-6.28q.42.02,1.37.04t2.28.03q1.33.01,2.85.01h1.08V-8H29.47q-1.03,0-1.96.01t-1.61.03q-.68.02-.94.04V-9.78q.42.02,1.37.04t2.28.03q1.33.01,2.87.01,1.22,0,2.1-.03t1.16-.05V-.82H29.58q-1.04,0-1.98.01t-1.61.02Q25.32-.78,25.06-.76Zm20.12.9a6.753,6.753,0,0,0-.38-.68q-.26-.42-.57-.84a4,4,0,0,0-.59-.66,17.529,17.529,0,0,0,6.29-3.45,12.454,12.454,0,0,0,3.59-5.63q-.94.02-2.13.06t-2.45.07q-1.26.03-2.41.07t-2.01.08l-1.26.06-.16-2.7q.58.04,1.53.06t2.09.02q1.14,0,2.36-.01t2.35-.04q1.13-.03,2.05-.07t1.46-.08l1.62.86a17.452,17.452,0,0,1-2.23,5.73,16.475,16.475,0,0,1-3.89,4.34A17.788,17.788,0,0,1,45.18.14ZM57.54-12.34a9.615,9.615,0,0,0-1.01-1.33A11.2,11.2,0,0,0,55.4-14.8l1.08-.9a7.331,7.331,0,0,1,.73.7q.43.46.84.93a7.428,7.428,0,0,1,.63.81Zm1.76-1.48a10.586,10.586,0,0,0-1.03-1.32,10.344,10.344,0,0,0-1.15-1.12l1.08-.9a7.331,7.331,0,0,1,.73.7q.43.46.85.93a8.362,8.362,0,0,1,.64.79Z" transform="translate(58.08 17.16)" fill="#272726"/>
</svg>
